<svg version="1.2" xmlns="http://www.w3.org/2000/svg" viewBox="0 0 512 512" width="512" height="512">
	<title>clock-rojo-svg</title>
	<style>
		.s0 { fill: #84a3b7 } 
	</style>
	<path id="Layer" fill-rule="evenodd" class="s0" d="m256 0c67.9 0 133 27 181 75 48 48 75 113.1 75 181 0 67.9-27 133-75 181-48 48-113.1 75-181 75-67.9 0-133-27-181-75-48-48-75-113.1-75-181 0-67.9 27-133 75-181 48-48 113.1-75 181-75zm-24 120v136c0 8 4 15.5 10.7 20l96 64c11 7.4 25.9 4.4 33.3-6.7 7.4-11.1 4.4-25.9-6.7-33.3l-85.3-56.8v-123.2c0-13.3-10.7-24-24-24-13.3 0-24 10.7-24 24z"/>
</svg>