<svg version="1.2" xmlns="http://www.w3.org/2000/svg" viewBox="0 0 384 512" width="384" height="512">
	<title>location-dot-rojo-svg</title>
	<style>
		.s0 { fill: #84a3b7 } 
	</style>
	<path id="Layer" fill-rule="evenodd" class="s0" d="m168.3 499.2c-51.3-64.2-168.3-219.8-168.3-307.2 0-106 86-192 192-192 106 0 192 86 192 192 0 87.4-117 243-168.3 307.2-12.3 15.3-35.1 15.3-47.4 0zm-21.6-352.5c-12 12-18.7 28.3-18.7 45.3 0 17 6.7 33.3 18.7 45.3 12 12 28.3 18.7 45.3 18.7 17 0 33.3-6.7 45.3-18.7 12-12 18.7-28.3 18.7-45.3 0-17-6.7-33.3-18.7-45.3-12-12-28.3-18.7-45.3-18.7-17 0-33.3 6.7-45.3 18.7z"/>
</svg>